<svg class="icon" viewBox="0 0 1024 1024" version="1.1" xmlns="http://www.w3.org/2000/svg" p-id="16811" height="128" width="128"><path d="M512 512m-512 0a512 512 0 1 0 1024 0 512 512 0 1 0-1024 0Z" fill="#F05050" p-id="16812"></path><path d="M443.733333 256l17.066667 366.933333h76.8L554.666667 256H443.733333z m51.2 452.266667c-17.066667 0-34.133333 8.533333-51.2 17.066666-8.533333 17.066667-17.066667 34.133333-17.066666 59.733334s8.533333 34.133333 25.6 51.2c8.533333 8.533333 25.6 17.066667 42.666666 17.066666s34.133333-8.533333 51.2-17.066666c17.066667-17.066667 17.066667-34.133333 17.066667-51.2 0-17.066667-8.533333-34.133333-17.066667-51.2-8.533333-17.066667-25.6-25.6-51.2-25.6z" fill="#FFFFFF" p-id="16813"></path></svg>