<svg class="icon" viewBox="0 0 1024 1024" version="1.1" xmlns="http://www.w3.org/2000/svg" p-id="5158" height="128" width="128"><path d="M811.918222 124.359111a424.049778 424.049778 0 1 0-599.722666 599.722667L512.227556 1024l299.690666-299.690667a424.277333 424.277333 0 0 0 0-599.950222z" fill="#1F7BFF" p-id="5159"></path><path d="M512 726.016A301.852444 301.852444 0 1 1 813.738667 424.163556a301.852444 301.852444 0 0 1-301.738667 301.852444z" fill="#FFFFFF" p-id="5160"></path><path d="M627.484444 238.933333h-227.555555a56.888889 56.888889 0 0 0-56.661333 56.888889v150.186667a18.887111 18.887111 0 0 0 7.168 14.791111 48.128 48.128 0 0 1 19.797333-18.318222v-92.273778a38.684444 38.684444 0 0 1 38.684444-38.684444H618.040889a38.798222 38.798222 0 0 1 38.684444 38.684444v92.273778a48.469333 48.469333 0 0 1 19.683556 18.318222 18.545778 18.545778 0 0 0 7.281778-14.791111V295.822222a56.888889 56.888889 0 0 0-56.206223-56.888889z" fill="#57A3FF" p-id="5161"></path><path d="M319.488 351.459556h-17.180444A12.629333 12.629333 0 0 0 289.678222 364.088889v43.690667a26.737778 26.737778 0 0 0 26.737778 26.737777 17.180444 17.180444 0 0 0 17.180444-17.066666v-51.882667a14.222222 14.222222 0 0 0-14.108444-14.108444zM724.992 351.459556h-17.408a14.108444 14.108444 0 0 0-14.108444 14.108444v51.882667a17.066667 17.066667 0 0 0 17.066666 17.066666 26.851556 26.851556 0 0 0 26.851556-26.737777V364.088889A12.629333 12.629333 0 0 0 724.992 351.459556z" fill="#4D4D4D" p-id="5162"></path><path d="M349.866667 550.456889m14.222222 0l298.780444 0q14.222222 0 14.222223 14.222222l0 6.712889q0 14.222222-14.222223 14.222222l-298.780444 0q-14.222222 0-14.222222-14.222222l0-6.712889q0-14.222222 14.222222-14.222222Z" fill="#1F7BFF" p-id="5163"></path><path d="M384.682667 609.735111a20.821333 20.821333 0 0 0 20.821333 20.821333h14.791111a20.821333 20.821333 0 0 0 20.821333-20.821333v-17.066667h-56.888888zM585.955556 609.735111a20.821333 20.821333 0 0 0 20.821333 20.821333h14.791111a20.821333 20.821333 0 0 0 20.821333-20.821333v-17.066667h-56.888889z" fill="#050505" p-id="5164"></path><path d="M618.040889 323.584H408.917333a26.624 26.624 0 0 0-26.624 26.624v100.465778a36.181333 36.181333 0 0 0-26.624 34.929778v48.469333a9.784889 9.784889 0 0 0 9.898667 9.784889h295.822222a9.784889 9.784889 0 0 0 9.898667-9.784889v-48.469333a36.295111 36.295111 0 0 0-26.737778-34.929778v-100.465778a26.624 26.624 0 0 0-26.510222-26.624zM395.036444 356.920889a13.084444 13.084444 0 0 1 13.539556-12.629333H618.040889a13.084444 13.084444 0 0 1 13.653333 12.629333v92.501333H395.036444z m8.305778 171.349333a22.755556 22.755556 0 1 1 22.755556-22.755555 22.755556 22.755556 0 0 1-22.414222 22.755555z m242.119111-22.755555a22.755556 22.755556 0 1 1-22.755555-22.755556A22.755556 22.755556 0 0 1 645.347556 505.856z" fill="#1F7BFF" p-id="5165"></path></svg>