<?xml version="1.0" standalone="no"?><!DOCTYPE svg PUBLIC "-//W3C//DTD SVG 1.1//EN" "http://www.w3.org/Graphics/SVG/1.1/DTD/svg11.dtd"><svg t="1628163573748" class="icon" viewBox="0 0 1024 1024" version="1.1" xmlns="http://www.w3.org/2000/svg" p-id="2133" width="32" height="32" xmlns:xlink="http://www.w3.org/1999/xlink"><defs><style type="text/css"></style></defs><path d="M51.2 218.6752a167.7312 167.7312 0 0 1 335.4112 0 59.7504 59.7504 0 0 1-4.3008 29.184 345.2928 345.2928 0 0 1-134.0928-83.8144 40.3456 40.3456 0 0 0-58.5728 0l-29.2864 20.992a41.8816 41.8816 0 0 0 0 62.8224 355.6352 355.6352 0 0 1 88.0128 138.24h-29.44A167.6288 167.6288 0 0 1 51.2 218.6752z m590.4384 33.536a90.112 90.112 0 0 1-4.3008-33.536 167.7312 167.7312 0 1 1 167.68 167.5264 79.2576 79.2576 0 0 1-29.2864-4.3008 350.6688 350.6688 0 0 1 88.0128-138.24 40.448 40.448 0 0 0 0-58.6752l-25.2416-25.2928a40.3456 40.3456 0 0 0-58.624 0 412.5184 412.5184 0 0 1-138.24 92.4672z m-259.584 523.6224a79.4112 79.4112 0 0 1 4.3008 29.184 167.7312 167.7312 0 1 1-167.7312-167.5264 68.1984 68.1984 0 0 1 29.2864 4.352 368.64 368.64 0 0 1-88.0128 142.4896 45.4656 45.4656 0 0 0 0 62.8224l29.2864 25.2928a50.5344 50.5344 0 0 0 58.624 0 364.0832 364.0832 0 0 1 134.2464-96.6144z m452.5568 33.792a422.144 422.144 0 0 1 0-594.7904l-25.2928-25.6a413.3376 413.3376 0 0 1-590.3872 4.3008l-29.2864 25.6a421.9904 421.9904 0 0 1 0 594.6368l29.2864 20.992a421.8368 421.8368 0 0 1 594.688 0z m-322.56-209.92A87.8592 87.8592 0 1 1 599.808 512 85.9648 85.9648 0 0 1 512 599.9616z m460.8 205.3632a167.7312 167.7312 0 0 1-335.4112 0 68.2496 68.2496 0 0 1 4.3008-29.184 368.1792 368.1792 0 0 1 142.4384 87.808 40.2432 40.2432 0 0 0 58.5728 0l25.2416-25.2928a40.3968 40.3968 0 0 0 0-58.6752 340.5312 340.5312 0 0 1-88.0128-142.4896c8.4992 0 20.992-4.3008 29.2864-4.3008a174.3872 174.3872 0 0 1 163.84 172.1344z" fill="#1E90FD" p-id="2134"></path></svg>