<?xml version="1.0" standalone="no"?><!DOCTYPE svg PUBLIC "-//W3C//DTD SVG 1.1//EN" "http://www.w3.org/Graphics/SVG/1.1/DTD/svg11.dtd"><svg t="1628164980987" class="icon" viewBox="0 0 1024 1024" version="1.1" xmlns="http://www.w3.org/2000/svg" p-id="6666" xmlns:xlink="http://www.w3.org/1999/xlink" width="48" height="48"><defs><style type="text/css"></style></defs><path d="M947.06 566.01L598.59 366.74c-5.71-3.24-9.1-9.44-8.73-16l9.46-170.94a81.924 81.924 0 0 0-22.04-61.6 80.953 80.953 0 0 0-59.65-25.15h-11.72c-23.08 0-44.26 8.97-59.77 25.27-15.45 16.36-23.2 38.16-21.92 61.29l9.46 171.12c0.44 6.54-2.93 12.75-8.67 15.93L76.48 565.95a24.34 24.34 0 0 0-12.27 21.25v72.83c-0.06 13.45 10.8 24.41 24.25 24.47 2.67 0.01 5.33-0.42 7.86-1.27l334.01-110.38c3.17 0.14 6.25 1.13 8.91 2.87 4.45 2.99 7.3 7.84 7.75 13.19l12.33 200.37c0.48 7.12-3.58 13.78-10.13 16.61l-105.25 49.45a24.404 24.404 0 0 0-14.04 22.1v32.05c0 7.39 3.36 14.41 9.16 19.11a24.76 24.76 0 0 0 20.57 4.76l151.04-33.03 153.42 33.21c7.22 1.6 14.77-0.17 20.51-4.82a24.275 24.275 0 0 0 9.1-19.05v-32.23c0-9.47-5.47-18.08-14.04-22.1L574.29 806a17.212 17.212 0 0 1-10.01-16.91l12.33-200.12c0.42-5.3 3.26-10.12 7.69-13.06 1.71-1.22 4.76-2.5 15.08-2.01l327.78 109.34c12.84 4.25 26.69-2.71 30.93-15.55a24.27 24.27 0 0 0 1.24-7.65v-72.77c0.05-8.79-4.64-16.92-12.27-21.26z" p-id="6667"></path></svg>