<?xml version="1.0" standalone="no"?><!DOCTYPE svg PUBLIC "-//W3C//DTD SVG 1.1//EN" "http://www.w3.org/Graphics/SVG/1.1/DTD/svg11.dtd"><svg t="1628165348443" class="icon" viewBox="0 0 1868 1024" version="1.1" xmlns="http://www.w3.org/2000/svg" p-id="8339" xmlns:xlink="http://www.w3.org/1999/xlink" width="87.5625" height="48"><defs><style type="text/css"></style></defs><path d="M1238.825175 644.475524c34.372028 7.160839 68.027972 16.46993 100.967832 29.359441 42.965035-19.334266 103.116084-52.274126 147.513287-70.176224C1442.193007 574.299301 1234.528671 443.972028 1217.342657 422.48951c-10.741259-15.037762-10.741259-35.088112 0-50.125874 9.309091-12.173427 91.658741-66.595804 143.216784-85.93007 81.633566-1.432168 104.548252-45.113287 78.76923-93.090909-20.05035-14.321678-52.99021-21.482517-98.81958-29.35944-20.766434 12.88951-38.668531 30.075524-51.558042 50.841958-65.87972 32.223776-171.144056 35.804196-186.181818 35.804196-20.05035 0.716084-42.248951-15.037762-93.090909-21.482518v7.160839c49.40979 7.876923 85.93007 28.643357 85.93007 57.286714 0 35.804196-54.422378 64.447552-121.734266 64.447552s-121.734266-28.643357-121.734266-64.447552c0-28.643357 36.52028-49.40979 85.93007-57.286714v-7.160839c-47.261538 7.160839-65.87972 20.05035-107.412587 14.321678-50.841958-7.160839-159.686713-27.211189-200.503497-42.965034-2.148252-25.062937-16.46993-47.261538-38.668531-58.002798-16.46993 5.728671-83.781818 32.223776-103.832168 40.816784-5.728671 15.753846-5.012587 35.804196 6.444755 60.151048 16.46993 34.372028 63.731469 30.791608 85.93007 28.643357 24.346853 13.605594 166.131469 99.535664 157.538462 136.055944-10.025175 45.113287-186.181818 143.932867-272.111889 179.020979 113.857343 35.804196 171.144056 78.053147 176.872728 75.188811 27.927273-12.88951 60.151049-12.173427 88.078321-10.741258 83.065734 4.296503 126.746853 14.321678 221.986014 14.321678 110.276923 0 208.38042-35.804196 286.433567-21.482518z m-35.088112-350.881118c-68.027972 104.548252 5.012587 185.465734 42.248951 207.664335-151.093706-87.362238-60.867133-184.74965-42.248951-207.664335z m-443.972028 0c40.100699 51.558042 116.721678 148.945455-72.324476 257.790209 94.523077-68.744056 146.081119-128.895105 72.324476-257.790209zM601.51049 630.153846c260.654545-199.787413 512.716084-223.418182 766.20979 7.160839-25.779021-19.334266-337.275524-310.78042-766.20979-7.160839z" fill="#0690EF" p-id="8340"></path><path d="M930.909091 257.79021c-21.482517 7.876923-35.804196 20.766434-35.804196 35.804196 0 23.630769 35.088112 42.965035 78.769231 42.965035s78.769231-19.334266 78.769231-42.965035c0-15.037762-14.321678-28.643357-35.804196-35.804196-10.741259 20.05035-27.211189 21.482517-42.965035 21.482517s-25.062937-0.716084-42.965035-21.482517zM1482.293706 759.048951c26.495105 58.002797 156.822378 73.040559 193.342658-7.160839 17.902098-42.248951 9.309091-90.942657-23.63077-123.166434-27.211189 3.58042-169.711888 100.967832-169.711888 130.327273zM1385.622378 85.93007c-17.186014 0-25.062937 15.753846-25.062937 35.804196 17.186014 0.716084 33.655944 3.58042 50.125874 7.160839 0-20.05035-8.593007-42.965035-25.062937-42.965035zM1568.223776 594.34965c25.779021-5.728671 41.532867-8.593007 64.447553-14.321678-2.148252-17.186014-10.025175-42.965035-28.643357-42.965035-19.334266 0-35.804196 32.93986-35.804196 57.286713zM329.398601 584.324476c16.46993 0.716084 38.668531 5.728671 64.447553 2.864335 0-24.346853-16.46993-64.447552-35.804196-64.447552-18.618182 0-28.643357 37.236364-28.643357 61.583217zM572.867133 100.251748c0-20.766434-12.88951-35.804196-27.927273-35.804196-14.321678 0-22.198601 22.198601-22.198601 42.965035 12.88951 0.716084 30.075524-5.012587 50.125874-7.160839z" fill="#0690EF" p-id="8341"></path><path d="M952.391608 199.071329V264.951049h42.965035v-65.87972c40.816783-5.012587 71.608392-22.914685 71.608392-45.113287 0-25.779021-41.532867-46.545455-93.090909-46.545455s-93.090909 20.766434-93.090909 46.545455c0 22.198601 30.791608 40.100699 71.608391 45.113287zM1147.882517 60.867133c23.630769 20.05035 180.453147 82.34965 206.948252 91.658741 23.630769 8.593007 33.655944 1.432168 64.447553 14.321678s55.138462 37.952448 113.857342 63.731469c76.620979 32.93986 128.179021 21.482517 128.179021 0s-199.071329-83.781818-221.26993-84.497902c-22.198601-0.716084-66.595804-3.58042-78.769231-7.160839s-127.462937-50.125874-171.144055-77.337063c-43.681119-27.927273-65.163636-20.766434-42.248952-0.716084zM1821.001399 436.811189c-32.223776 0-75.188811 35.088112-107.412588 71.608391-24.346853 27.927273-50.841958 54.422378-78.769231 78.769231-8.593007 7.876923-7.160839 10.741259-64.447552 14.321679s-158.970629 53.706294-236.307692 100.251748-54.422378 101.683916-28.643357 107.412587 91.658741-11.457343 136.055944-42.965035 96.671329-92.374825 136.055944-114.573426c38.668531-22.198601 47.977622-20.05035 64.447553-35.804196s158.254545-86.646154 193.342657-121.018182c35.088112-35.088112 17.902098-58.002797-14.321678-58.002797zM408.883916 216.257343c52.274126-34.372028 107.412587-63.015385 165.415385-85.213986 24.346853-9.309091 118.153846-41.532867 143.932867-56.57063 25.779021-15.037762 40.100699-20.766434 57.286713-42.248951s-24.346853-5.012587-50.125874 14.321679-123.882517 55.854545-151.093706 70.892307c-1.432168 0.716084-27.211189 11.457343-42.965035 7.160839-27.927273-7.160839-264.234965 66.595804-259.222378 99.535665 2.148252 12.88951 65.163636 40.100699 136.772028-7.876923zM403.871329 640.179021c35.088112 10.025175 149.661538 120.302098 244.184615 136.055944 93.806993 15.753846 152.525874-10.741259 50.125874-71.608392s-267.815385-123.166434-308.632168-114.573426c-27.927273 15.753846-38.668531 16.46993-64.447552 0-37.952448-24.346853-106.696503-86.646154-150.377622-114.573427-31.507692-20.766434-65.163636-37.236364-100.251749-50.125874-27.211189-9.309091-73.040559 9.309091 7.160839 57.286713 78.053147 47.261538 232.727273 121.734266 244.184616 128.895105 34.372028 23.630769 51.558042 20.766434 78.053147 28.643357z" fill="#0690EF" p-id="8342"></path><path d="M1298.976224 902.981818c-6.444755-30.075524-33.655944-159.686713-36.52028-171.144056 10.025175-12.88951 21.482517-66.595804-22.198601-78.053147-13.605594-3.58042-37.952448-5.012587-50.841958 21.482518-7.876923 16.46993-0.716084 56.570629 29.35944 57.286713 8.593007 23.630769 15.753846 47.261538 21.482518 70.892308-31.507692-27.927273-80.917483-77.337063-65.163637-142.500699-22.914685 2.864336-47.261538 5.728671-73.040559 7.160839 19.334266 35.804196 116.721678 205.516084 131.043356 234.875524-22.198601 65.87972 11.457343 79.485315 29.359441 78.053147 14.321678 2.148252-0.716084 21.482517 29.359441 21.482518 25.062937 0 30.791608-27.927273 29.35944-42.965035 11.457343-23.630769-7.160839-54.422378-22.198601-56.57063zM723.244755 673.118881c-7.160839-1.432168-45.113287-5.012587-64.447552-7.160839-0.716084 2.148252-0.716084 5.012587-1.432168 9.309091 13.605594 3.58042 34.372028 16.46993 60.867133 27.211189 1.432168-12.173427 3.58042-22.198601 5.012587-29.359441zM751.888112 673.118881c-4.296503 11.457343-10.741259 27.211189-18.618182 43.681119 56.570629 52.99021 0.716084 68.744056-10.025175 70.892308-17.186014 0-60.867133 0-78.053147-1.432168-3.58042 41.532867-7.160839 82.34965-8.593007 100.251748-36.52028 7.876923-47.261538 60.867133-21.482517 78.053147 10.741259 52.99021 56.570629 24.346853 64.447552 7.160839 24.346853-7.876923 22.914685-40.816783 14.321679-57.286713 1.432168-15.753846 113.141259-219.121678 121.734265-234.875525-17.186014-1.432168-49.40979-5.012587-63.731468-6.444755zM310.064336 615.832168c-10.025175-0.716084-14.321678 15.037762-20.766434 25.062937-38.668531 61.583217-17.902098 161.118881 105.98042 153.241958 64.447552-4.296503 83.065734-37.236364 105.980419-73.04056-27.927273-10.025175-63.015385-50.841958-98.81958-58.718881C326.534266 647.33986 315.076923 615.832168 310.064336 615.832168z" fill="#0690EF" p-id="8343"></path></svg>