<?xml version="1.0" standalone="no"?><!DOCTYPE svg PUBLIC "-//W3C//DTD SVG 1.1//EN" "http://www.w3.org/Graphics/SVG/1.1/DTD/svg11.dtd"><svg t="1628219702483" class="icon" viewBox="0 0 1290 1024" version="1.1" xmlns="http://www.w3.org/2000/svg" p-id="3470" width="161.25" height="128" xmlns:xlink="http://www.w3.org/1999/xlink"><defs><style type="text/css"></style></defs><path d="M645.459512 989.747615L204.653696 441.580367l-12.091608-15.060722-161.924277-201.383367C123.583981 156.459386 344.331134 21.515317 645.459512 21.515317c300.698071 0 521.746439 134.901038 614.8217 203.663991l-161.924276 201.383368-14.458293 17.986805-438.482162 545.198134z" fill="#4AA2FE" p-id="3471"></path><path d="M645.459512 955.409169l409.135269-508.751187 27.023238-33.606925 147.681136-183.654747C1129.468084 159.428499 921.888305 43.030634 645.459512 43.030634 368.686473 43.030634 161.235786 159.428499 61.619868 229.35328L209.344035 413.094087l24.183216 30.035383L645.459512 955.409169m0 68.5478l-0.559399-0.559398L175.78014 440.031264 0 221.435643C24.957768 202.545195 272.81422 0 645.459512 0c372.085893 0 620.501744 202.588225 645.459511 221.392613l-175.78014 218.595621-469.163004 583.409337-0.516367 0.559398z" fill="#3785FF" p-id="3472"></path></svg>