<svg class="icon" viewBox="0 0 1024 1024" version="1.1" xmlns="http://www.w3.org/2000/svg" p-id="3315" height="128" width="128"><path d="M971.364486 395.563863H802.292835v-111.65109c92.510903 0 169.071651-76.560748 169.071651-169.071652H802.292835c0-63.800623-51.040498-114.841121-114.841122-114.841121H350.903427c-63.800623 0-114.841121 51.040498-114.841122 114.841121H68.58567c0 92.510903 76.560748 169.071651 169.071651 169.071652v114.841121H68.58567c0 92.510903 76.560748 169.071651 169.071651 169.071651v114.841122H68.58567c0 92.510903 76.560748 169.071651 169.071651 169.071651v57.420561c0 63.800623 51.040498 114.841121 114.841121 114.841121h339.738318c63.800623 0 114.841121-51.040498 114.841122-114.841121v-57.420561c92.510903 0 169.071651-76.560748 169.071651-169.071651H805.482866v-114.841122c89.320872 0 165.88162-76.560748 165.88162-172.261682zM519.975078 904.373832c-63.800623 0-114.841121-51.040498-114.841122-114.841122s51.040498-114.841121 114.841122-114.841121 114.841121 51.040498 114.841121 114.841121-51.040498 114.841121-114.841121 114.841122z m0-279.127726c-63.800623 0-114.841121-51.040498-114.841122-114.841122s51.040498-114.841121 114.841122-114.841121 114.841121 51.040498 114.841121 114.841121-51.040498 114.841121-114.841121 114.841122z m0-283.912773c-63.800623 0-114.841121-51.040498-114.841122-114.841121s51.040498-111.65109 114.841122-111.651091 114.841121 51.040498 114.841121 114.841122-51.040498 111.65109-114.841121 111.65109z" fill="#181314" p-id="3316"></path><path d="M518.380062 226.492212m-118.031152 0a118.031153 118.031153 0 1 0 236.062305 0 118.031153 118.031153 0 1 0-236.062305 0Z" fill="#DD1919" p-id="3317"></path><path d="M521.570093 510.404984m-116.436137 0a116.436137 116.436137 0 1 0 232.872275 0 116.436137 116.436137 0 1 0-232.872275 0Z" fill="#13914B" p-id="3318"></path><path d="M519.975078 791.127726m-116.436137 0a116.436137 116.436137 0 1 0 232.872274 0 116.436137 116.436137 0 1 0-232.872274 0Z" fill="#FF9800" p-id="3319"></path></svg>