<svg class="icon" viewBox="0 0 1024 1024" version="1.1" xmlns="http://www.w3.org/2000/svg" p-id="3141" height="128" width="128"><path d="M508.803626 0C272.271942 0 80.489495 190.18426 80.489495 425.117757c0 108.67672 41.552863 206.16613 107.078533 281.280922 1.598187 3.196374 4.794561 6.392748 6.392748 9.589122 182.193324 190.18426 273.289987 286.075483 276.486361 287.673671l6.392748 6.392748c4.794561 4.794561 9.589122 7.990935 14.383683 9.589122 15.981871 7.990935 35.160115 4.794561 47.945612-7.990935 3.196374-3.196374 7.990935-6.392748 12.785496-11.18731 3.196374-3.196374 92.694849-97.48941 268.495426-284.477296 3.196374-3.196374 4.794561-4.794561 6.392748-7.990935 67.123856-75.114792 108.67672-174.202389 108.67672-281.280922C935.51957 190.18426 743.737123 0 508.803626 0z" fill="#4EAAF0" p-id="3142"></path><path d="M756.52262 591.329211h-39.954677v-70.320231h-91.096662c9.589122-12.785496 9.589122-30.365554 0-51.141985h91.096662v-60.731109h39.954677V591.329211z m-201.371569-121.462216c14.383684-12.785496 36.758302-12.785496 51.141985 0 12.785496 14.383684 12.785496 36.758302 0 51.141985-14.383684 12.785496-36.758302 12.785496-51.141985 0-12.785496-15.981871-12.785496-38.356489 0-51.141985z m-9.589123-252.513555l70.320231 60.731108c12.785496 12.785496 12.785496 30.365554 0 39.954676l-91.096663 91.096662 39.954677 39.954677c-9.589122 0-14.383684 3.196374-20.776432 9.589122-3.196374 1.598187-6.392748 6.392748-9.589122 9.589123l-39.954677-39.954677-91.096662 91.096662c-7.990935 12.785496-23.972806 12.785496-30.365554 0l-70.32023-60.731108c-12.785496-12.785496-12.785496-30.365554 0-39.954676l212.558878-201.371569c7.990935-12.785496 23.972806-12.785496 30.365554 0zM293.048373 479.456117l70.320231 70.32023-20.776432 9.589123h-9.589122l-9.589123 9.589122h-9.589122L272.271942 530.598103v-9.589123l9.589122-9.589122-9.589122-11.187309 20.776431-20.776432z" fill="#081F45" p-id="3143"></path></svg>